<?xml version="1.0" encoding="utf-8"?>
<!-- Generator: Adobe Illustrator 26.1.0, SVG Export Plug-In . SVG Version: 6.00 Build 0)  -->
<svg version="1.1" id="Layer_1" xmlns="http://www.w3.org/2000/svg" xmlns:xlink="http://www.w3.org/1999/xlink" x="0px" y="0px"
	 viewBox="0 0 1080 1080" style="enable-background:new 0 0 1080 1080;" xml:space="preserve">
<style type="text/css">
	.st0{fill:url(#SVGID_1_);}
	.st1{opacity:0.12;fill:url(#SVGID_00000123406521481628689090000000053701731883525011_);}
	.st2{opacity:0.12;fill:url(#SVGID_00000004520643200506821840000004154598479800067479_);}
</style>
<linearGradient id="SVGID_1_" gradientUnits="userSpaceOnUse" x1="39.5" y1="535.756" x2="1049.6481" y2="535.756">
	<stop  offset="0" style="stop-color:#EC796B"/>
	<stop  offset="1" style="stop-color:#E175B1"/>
</linearGradient>
<path class="st0" d="M39.67,224.16C51.86,205,461.9,348.65,500.2,344.29c40.02-4.55,336.91-343,350.84-332.56
	c10.45,7.84-124.49,441.38-113.73,477.98c15.4,52.39,319.18,349.06,312.22,357.76c-11.15,13.94-421.79-128.84-466.63-118.4
	c-37.39,8.71-320.37,337.78-334.3,330.82c-15.69-7.84,129.71-443.99,120.31-489.45C360.51,529.81,30.98,237.82,39.67,224.16z"/>
<linearGradient id="SVGID_00000094582352650017525830000005426855205775251101_" gradientUnits="userSpaceOnUse" x1="-647.1951" y1="490.089" x2="-645.3295" y2="490.089">
	<stop  offset="0" style="stop-color:#FFFFFF;stop-opacity:0"/>
	<stop  offset="1" style="stop-color:#FFFFFF"/>
</linearGradient>
<path style="opacity:0.12;fill:url(#SVGID_00000094582352650017525830000005426855205775251101_);" d="M112.83,244.93
	c10.57-16.61,353.07,107.93,386.28,104.16c34.7-3.94,315.1-322.38,327.17-313.32c9.06,6.79-106.93,423.67-97.6,455.41
	c13.35,45.42,266.73,285.63,260.69,293.18c-9.67,12.08-356.69-135.71-395.56-126.65c-32.42,7.55-277.76,292.85-289.83,286.81
	c-13.6-6.8,112.46-384.94,104.31-424.35C400.99,484.92,105.29,256.77,112.83,244.93z"/>
<linearGradient id="SVGID_00000047782801554004936090000011694760024413440164_" gradientUnits="userSpaceOnUse" x1="368.0507" y1="266.6243" x2="369.9142" y2="266.6243">
	<stop  offset="0" style="stop-color:#FFFFFF;stop-opacity:0"/>
	<stop  offset="1" style="stop-color:#FFFFFF"/>
</linearGradient>
<path style="opacity:0.12;fill:url(#SVGID_00000047782801554004936090000011694760024413440164_);" d="M1127.21-3.53
	c10.57-16.61,366.07,107.93,399.28,104.16c34.7-3.94,292.1-297.38,304.17-288.32c9.06,6.79-107.93,382.67-98.6,414.41
	c13.35,45.42,276.73,302.63,270.69,310.18c-9.67,12.08-365.69-111.71-404.56-102.65c-32.42,7.55-277.76,292.85-289.83,286.81
	c-13.6-6.8,112.46-384.94,104.31-424.35C1405.38,261.47,1119.68,8.31,1127.21-3.53z"/>
</svg>
